# xmcd CD database file
#
# Track frame offsets:
#	150
#	20792
#	40205
#	60935
#
# Disc length: 1065 seconds
#
# Revision: 1
# Processed by: cddbd v1.5.1PL0 Copyright (c) Steve Scherf et al.
# Submitted via: CDex 1.51
#
DISCID=2b042704
DTITLE=Harukaze Kurobane and Hikaru Amane - Joy to the world
DYEAR=2003
DGENRE=Anime
TTITLE0=Joy to the world
TTITLE1=Joy to the world (Remix Version)
TTITLE2=Joy to the world (Original Karaoke)
TTITLE3=天狗〜祭りのテーマ〜（INSTRUMENTAL)
EXTD=YEAR: 2003
EXTT0=
EXTT1=
EXTT2=
EXTT3=
PLAYORDER=
